<svg width="202" height="20" viewBox="0 0 202 20" fill="none" xmlns="http://www.w3.org/2000/svg">
<path d="M202 20H195.232L189.949 13.6857H184.067V20H178.271V0H192.291C197.402 0 201.371 2.25714 201.371 6.82857C201.371 10.1714 199.258 12.2857 196.117 13.2L202 20ZM184.039 9.45714H191.863C193.947 9.45714 195.461 8.88571 195.461 6.94286C195.461 5 193.947 4.42857 191.863 4.42857H184.039V9.45714Z" fill="white"/>
<path d="M159.45 15.5429H175.041V20H153.71V0H174.726V4.45714H159.45V7.74286H172.042V12H159.45V15.5429Z" fill="white"/>
<path d="M151.213 0V4.65714H142.904V20H137.079V4.65714H128.826V0H151.213Z" fill="white"/>
<path d="M125.711 20L123.827 16.1714H112.862L110.977 20H104.866L115.203 0H121.571L131.908 20H125.711ZM114.86 12.0286H121.799L118.344 4.94286L114.86 12.0286Z" fill="white"/>
<path d="M100.807 0H106.661L99.3791 20H93.5824L88.928 6.08571L84.2449 20H78.5054L71.1953 0H77.1633L81.5322 13.7429L86.3009 0H91.6692L96.4379 13.7429L100.807 0Z" fill="white"/>
<path d="M62.1502 0C67.6042 0 71.2307 2.4 71.2307 7C71.2307 11.6571 67.6042 14 62.1502 14H54.0977V20H48.2725V0H62.1502ZM61.6647 9.77143C63.8349 9.77143 65.3198 9.11429 65.3198 7.11429C65.3198 5.08571 63.8349 4.42857 61.6647 4.42857H54.0977V9.77143H61.6647Z" fill="white"/>
<path d="M40.1498 20L38.2652 16.1714H27.3001L25.4155 20H19.3047L29.6416 0H36.0093L46.3462 20H40.1498ZM29.2989 12.0286H36.2378L32.7826 4.94286L29.2989 12.0286Z" fill="white"/>
<path d="M22.3871 0V4.65714H14.0776V20H8.25239V4.65714H0V0H22.3871Z" fill="white"/>
</svg>
